# xmcd CD database file generated by OrangeCD 5.2
#
# Track frame offsets:
#	175
#	20487
#	25375
#	35275
#	58675
#	75650
#	91000
#	108925
#	125162
#	130375
#	155425
#	166900
#	187675
#	200950
#	217975
#	233200
#	250205
#
# Disc length: 3420 seconds
#
# Revision: 0
# Processed by: cddbd v1.5.1PL0 Copyright (c) Steve Scherf et al.
# Submitted via: OrangeCD 5.2
#
DISCID=e00d5a11
DTITLE=The Dizzy Dave Band - The Sultans - Hardworkin' Blues (double date)
DYEAR=1992
DGENRE=Blues
TTITLE0=The Dizzy Dave Band - The Things You Do
TTITLE1=The Dizzy Dave Band - Don't Make Me Wait
TTITLE2=The Dizzy Dave Band - Bad Timing
TTITLE3=The Dizzy Dave Band - Come Back Home
TTITLE4=The Dizzy Dave Band - Leavin' You
TTITLE5=The Dizzy Dave Band - Gonna Get You
TTITLE6=The Dizzy Dave Band - Boogie for B.
TTITLE7=The Dizzy Dave Band - So Easy
TTITLE8=The Dizzy Dave Band - Leavin' You Again
TTITLE9=The Sultans - Take Out Some Insurance
TTITLE10=The Sultans - Wella Baby La
TTITLE11=The Sultans - Goin' My Way
TTITLE12=The Sultans - Bim Bam
TTITLE13=The Sultans - Hey Operator
TTITLE14=The Sultans - The Hustle Is On
TTITLE15=The Sultans - It Takes Time
TTITLE16=The Sultans - Way Past Nine
EXTD=
EXTT0=
EXTT1=
EXTT2=
EXTT3=
EXTT4=
EXTT5=
EXTT6=
EXTT7=
EXTT8=
EXTT9=
EXTT10=
EXTT11=
EXTT12=
EXTT13=
EXTT14=
EXTT15=
EXTT16=
PLAYORDER=
